<svg width="25" height="25" viewBox="0 0 25 25" fill="none" xmlns="http://www.w3.org/2000/svg">
<rect width="25" height="25" rx="3" fill="#FBC02D"/>
<path d="M15.9375 8.13068C15.8466 7.32386 15.4716 6.69886 14.8125 6.25568C14.1534 5.80682 13.3239 5.58239 12.3239 5.58239C11.608 5.58239 10.9886 5.69602 10.4659 5.92329C9.94318 6.14489 9.53693 6.4517 9.24716 6.84375C8.96307 7.23011 8.82102 7.67045 8.82102 8.16477C8.82102 8.57955 8.91761 8.9375 9.1108 9.23864C9.30966 9.53977 9.56818 9.79261 9.88636 9.99716C10.2102 10.196 10.5568 10.3636 10.9261 10.5C11.2955 10.6307 11.6506 10.7386 11.9915 10.8239L13.696 11.267C14.2528 11.4034 14.8239 11.5881 15.4091 11.821C15.9943 12.054 16.5369 12.3608 17.0369 12.7415C17.5369 13.1222 17.9403 13.5938 18.2472 14.1562C18.5597 14.7188 18.7159 15.392 18.7159 16.1761C18.7159 17.1648 18.4602 18.0426 17.9489 18.8097C17.4432 19.5767 16.7074 20.1818 15.7415 20.625C14.7813 21.0682 13.6193 21.2898 12.2557 21.2898C10.9489 21.2898 9.81818 21.0824 8.86364 20.6676C7.90909 20.2528 7.16193 19.6648 6.62216 18.9034C6.08239 18.1364 5.78409 17.2273 5.72727 16.1761H8.36932C8.42045 16.8068 8.625 17.3324 8.98295 17.7528C9.34659 18.1676 9.80966 18.4773 10.3722 18.6818C10.9403 18.8807 11.5625 18.9801 12.2386 18.9801C12.983 18.9801 13.6449 18.8636 14.2244 18.6307C14.8097 18.392 15.2699 18.0625 15.6051 17.642C15.9403 17.2159 16.108 16.7187 16.108 16.1506C16.108 15.6335 15.9602 15.2102 15.6648 14.8807C15.375 14.5511 14.9801 14.2784 14.4801 14.0625C13.9858 13.8466 13.4261 13.6562 12.8011 13.4915L10.7386 12.929C9.34091 12.5483 8.23295 11.9886 7.41477 11.25C6.60227 10.5114 6.19602 9.53409 6.19602 8.31818C6.19602 7.3125 6.46875 6.43466 7.0142 5.68466C7.55966 4.93466 8.2983 4.35227 9.23011 3.9375C10.1619 3.51705 11.2131 3.30682 12.3835 3.30682C13.5653 3.30682 14.608 3.5142 15.5114 3.92898C16.4205 4.34375 17.1364 4.91477 17.6591 5.64204C18.1818 6.36364 18.4545 7.19318 18.4773 8.13068H15.9375Z" fill="white"/>
</svg>
